<?xml version="1.0" encoding="utf-8"?>
<!-- Generator: Adobe Illustrator 27.7.0, SVG Export Plug-In . SVG Version: 6.00 Build 0)  -->
<svg version="1.1" xmlns="http://www.w3.org/2000/svg" xmlns:xlink="http://www.w3.org/1999/xlink" x="0px" y="0px"
	 viewBox="0 0 475.879 49.199" enable-background="new 0 0 475.879 49.199" xml:space="preserve">
<g id="Layer_1">
	<g>
		<g>
			<g>
				<path fill="#FFFFFF" d="M336.032,0.613c-1.309,2.961-2.809,5.719-3.881,8.91c-0.799-0.738-0.965-1.887-1.236-3
					c-0.48-1.967-1.486-3.764-1.855-5.822c-2.932,0.104-6.629-0.531-8.82,0.175c0.006,0.296,0.014,0.61,0.023,0.911
					c0.107,4.139,0.242,8.564,0.305,13.092c0.06,4.543,0.047,9.18-0.15,13.703c-0.164,3.678-0.492,7.354-0.404,10.83
					c0.059,2.357,0.309,4.621,0.93,6.73c2.783,0.463,5.969,0.18,8.471,0.352c0.129-5.135,0.01-10.521,0.527-15.262
					c0.561,1.148,0.82,2.594,1.412,3.699c0.857,0,1.496-0.211,2.299-0.262c0.551-0.914,0.555-2.381,1.057-3.35
					c0.016,0.525,0.02,1.061,0.02,1.608c-0.008,3.777-0.35,7.959-0.283,11.535c0,0.1,0.008,0.205,0.008,0.305
					c0.029,0.848,0.113,1.738,0.611,2.344c2.33-0.322,5.77,0.08,8.381-0.355c0.092-0.543,0.121-1.064,0.125-1.596
					c0-0.568-0.025-1.141-0.037-1.754c-0.008-0.004-0.021-0.004-0.033-0.008c-0.15-0.055-0.392,0.1-0.631,0.141
					c-0.096,0.018-0.197,0.014-0.279-0.037c-0.01-0.004-0.018-0.004-0.025-0.008c0.184-0.338-0.168-0.73,0.084-1.061
					c0.51,0.232-0.051,0.643,0.359,0.797c0.609-0.312,0.5-1.111,0.525-1.68c0.07-1.629,0.143-3.328,0.139-5.029
					c0-0.742-0.014-1.477-0.051-2.203c-0.08-1.574-0.422-3.133-0.506-4.68c-0.037-0.646-0.033-1.295,0.062-1.938
					c0.08-0.531,0.414-1.002,0.531-1.5c0.117-0.492,0.166-0.969,0.18-1.441c0.033-1.039-0.113-2.059-0.164-3.145
					c-0.012-0.234-0.016-0.469-0.016-0.707c0.012-1.554,0.025-3.756,0.18-4.942c0.025-0.192,0.033-0.389,0.041-0.581
					c0.043-1.248-0.229-2.519-0.316-3.738c-0.033-0.451-0.039-0.894,0.008-1.328c0.322-2.929,0.568-5.787,0.74-8.799
					c0.016-0.305,0.037-0.601,0.053-0.906C341.782,0.483,339.015,0.496,336.032,0.613z M332.952,20.845
					c-0.07,0.184-0.184,0.322-0.354,0.41c-0.006,0-0.006,0.004-0.01,0.004c0,0,0,0-0.004,0c-0.396,0.046-0.242-0.455-0.521-0.531
					c0.246-0.191,0.639-0.668,0.969-0.263c0,0.005-0.004,0.009-0.004,0.013C333.024,20.621,332.995,20.737,332.952,20.845z
					 M332.235,21.806c0.049,0.275-0.147,0.363-0.348,0.33c-0.188-0.029-0.381-0.162-0.355-0.347c0.004,0,0,0,0,0
					c0.004,0,0.004,0,0.004,0c0.117,0.009,0.201,0.005,0.268-0.009c0.16-0.024,0.246-0.074,0.422,0.004c0.004,0,0.01,0,0.01,0.005
					C332.239,21.794,332.235,21.798,332.235,21.806z M332.589,19.847c-0.037-0.184,0.059-0.238,0.088-0.355
					c0.348-0.021,0.455,0.192,0.711,0.268C333.308,19.976,332.769,19.998,332.589,19.847z M322.446,17.904
					c0.086,0.619-0.273,0.786-0.707,0.883C321.837,18.36,321.831,17.82,322.446,17.904z M328.708,22.32
					c-0.111,0.348,0.242,0.227,0.352,0.352c-0.096,0.2-0.268,0.316-0.525,0.351c0-0.229,0.045-0.514-0.178-0.526
					C328.376,22.341,328.507,22.291,328.708,22.32z M331.003,17.377c0.078,0.535-0.377,0.582-0.619,0.351
					C330.395,17.419,330.677,17.373,331.003,17.377z M331.62,20.64c0.188-0.041,0.172,0.126,0.176,0.268
					c0.018,0.159,0.301,0.055,0.355,0.176c-0.223,0.271-0.359,0.066-0.707,0.176C331.436,20.988,331.55,20.837,331.62,20.64z
					 M333.56,21.347c0.232-0.025,0.379,0.033,0.353,0.263C333.681,21.639,333.472,21.639,333.56,21.347z M337.882,23.996
					c0.059,0.271-0.506,0.367-0.617,0.176C337.276,23.824,337.665,23.912,337.882,23.996z M338.061,18.787
					c0.209-0.201,0.535-0.014,0.707,0.092C338.759,19.141,337.958,19.162,338.061,18.787z M340.179,7.586
					c0.103-0.075,0.236-0.121,0.441-0.088C340.751,7.773,340.114,7.919,340.179,7.586z M341.683,20.115
					c-0.051-0.318,0.426-0.789,0.881-0.886C342.497,19.752,342.099,19.943,341.683,20.115z M341.856,20.203
					c0.121,0,0.172,0.1,0.18,0.217c0.01,0.117-0.029,0.25-0.092,0.309h-0.176h-0.18C341.54,20.416,341.735,20.339,341.856,20.203z
					 M341.769,42.875c-0.07,0.08-0.096,0.201-0.086,0.355c-0.289-0.055-0.273,0.168-0.443,0
					C341.173,42.867,341.54,42.675,341.769,42.875z"/>
				<path fill="#FFFFFF" d="M319.075,34.406c-4.615,0.322-10.02,1.793-15.316,0.885c-0.012,0-0.023,0-0.035-0.004
					c0.033-0.596,0.043-1.189,0.043-1.783c0.004-1.717-0.102-3.447-0.178-5.246c-0.016-0.301-0.029-0.601-0.041-0.912
					c3.377-0.074,7.01-0.316,9.967-0.529c0.066-2.11,0.031-4.646,0.01-6.851c-0.002-0.314-0.006-0.619-0.01-0.911
					c-2.693-1.124-6.832-0.806-9.713-1.743c-0.025-0.008-0.053-0.012-0.078-0.021c0.053-0.431,0.068-0.886,0.068-1.345
					c0.004-0.819-0.043-1.658-0.07-2.469c-0.035-1.008-0.033-1.96,0.18-2.716c4.809-0.2,9.781-0.685,14.748-0.442
					c0.025,0,0.051,0,0.074,0c-0.346-3.154-0.25-6.748-1.061-9.442c-7.066-0.088-15.748-0.259-22.584,0.087
					c-0.197,0.23-0.258,0.869-0.268,1.237c-0.017,0.602-0.008,1.194,0.008,1.784c0.078,2.74,0.455,5.373,0.609,7.921
					c0.029,0.472,0.033,0.952,0.031,1.429c-0.012,2.248-0.295,4.566-0.295,6.869c0,1.098,0.014,2.201,0.039,3.309
					c0.164,7.318,0.811,14.719,1.111,21.483c7.465-0.059,15.172,0.121,22.496-0.088c-0.002-0.066,0-0.135-0.002-0.201
					c-0.002-0.059-0.002-0.121-0.002-0.18c-0.066-2.994,0.268-6.232,0.273-9.213C319.081,35.007,319.085,34.703,319.075,34.406z
					 M300.108,35.287c0.152-0.109,0.229-0.297,0.527-0.264C300.679,35.492,300.413,35.32,300.108,35.287z M311.487,4.318
					c-0.389,0.055-0.318,0.568-0.793,0.53C310.765,4.476,311.106,4.377,311.487,4.318z M300.37,35.642
					c-0.107,0.271-0.166,0.6-0.619,0.527C299.632,35.951,299.991,35.378,300.37,35.642z"/>
				<path fill="#FFFFFF" d="M131.1,37.248c-0.2-0.004-0.4,0-0.602-0.008c-0.2-2.801-0.056-6.436-0.092-9.084
					c0.391-0.059,0.807-0.096,1.237-0.129c0.189-0.014,0.393-0.022,0.589-0.033c2.678-0.143,5.831,0.004,8.18-0.484
					c-0.292-2.615,0.786-5.623,0-7.6c-0.058-0.234,0.178-0.255,0.301-0.317c0.084-0.038,0.117-0.092-0.024-0.238
					c-2.654-0.956-6.326-0.856-9.601-0.994c-0.196-0.009-0.398-0.013-0.59-0.024c-0.175-2.182-0.613-5.354,0-7.412
					c1.625-0.322,3.462-0.431,5.467-0.372c0.461-0.15,0.292,0.321,0.648,0.28c0.121-0.418,0.357-0.251,0.558-0.28
					c0.82-0.121,1.836,0.017,2.779-0.092c1.543-0.171,2.9-0.51,4.354-0.372c0.094-0.664,0.934-0.477,1.205-0.739
					c-0.132-2.637-0.021-5.52-0.554-7.75c-0.031-0.134-0.056-0.276-0.094-0.405c-7.688-0.242-14.626,0.309-22.61-0.092
					c-0.512,1.922,0.036,4.027-0.092,6.02c-0.134,1.964,0.226,3.776,0.368,5.744c0.1,1.433-0.121,2.911-0.184,4.448
					c-0.065,1.396,0.09,2.826,0.09,4.175c-0.002,3.563-0.24,6.655,0.374,9.353c-0.017,4.475-0.092,10.727,0.65,15.852
					c0.19,0,0.383,0,0.57,0c4.235,0.025,8.548-0.096,13.144,0.088c0.178-0.037,0.006-0.422,0.367-0.275
					c0.763,0.209,1.571,0.041,2.223,0c2.228-0.129,4.78,0.316,6.488-0.275c-0.133-0.664-0.388-0.59,0.095-0.836
					c-0.566-3.275,0.298-5.848,0.595-8.744c0.017-0.174,0.04-0.342,0.055-0.52C142.123,36.935,136.633,37.343,131.1,37.248z"/>
				<path fill="#FFFFFF" d="M465.202,10.677c-0.014-0.689-0.022-1.379-0.029-2.072c-0.014-1.045-0.033-2.103-0.059-3.172
					c-0.004-0.051-0.004-0.101-0.004-0.154l-0.098-2.206l-0.041-1.007c-0.07-0.255-0.168-0.51-0.312-0.748
					c-2.365-0.418-5.887-0.268-8.379-0.088c-0.08,5.039,0,9.939,0,14.91c0,0.213,0.004,0.422,0.014,0.635
					c0.033,0.986,0.133,1.965,0.115,2.926c-0.004,0.493-0.037,0.982-0.129,1.471c-1.354-3.431-2.297-6.773-3.885-9.885
					c-1.584-3.112-2.828-6.43-3.617-10.236c-3.033-0.195-5.912,0.088-9.09,0.18c0.02,0.297,0.037,0.606,0.059,0.906
					c0.242,3.609,0.4,7.392,0.455,11.205c0.055,3.785,0.008,7.596-0.16,11.272c-0.1,2.207-0.246,4.438-0.213,6.564
					c0.01,0.43,0.014,0.865,0.039,1.287c0.147,2.346,0.859,4.666,0.793,6.893c0,0.025,0.004,0.051,0,0.08
					c-0.021,0.584-0.283,1.258-0.264,1.852c0.004,0.141,0.025,0.295,0.043,0.445c0.092,0.693,0.297,1.445,0.4,2.111
					c0.125,0.848,0.309,1.67,0.619,2.385c2.602,0.154,5.037,0.217,7.498-0.088c0.238-2.352,0.346-4.922,0.334-7.498
					c-0.004-1.033-0.025-2.068-0.07-3.094c-0.029-0.707-0.043-1.412-0.051-2.117c-0.043-2.896,0.074-5.787,0.137-8.557
					c2.596,6.18,5.117,12.711,7.592,18.885c0.338,0.852,0.51,1.896,1.234,2.557c2.213,0.17,5.08,0.334,6.879-0.088
					c0.172-7.34,0.355-15.969,0.355-23.822c0-1.424,0.117-2.832,0.139-4.223c0.008-0.629,0.004-1.25-0.051-1.869
					C465.294,14.408,465.235,12.544,465.202,10.677z M460.515,35.287c0.154-0.109,0.228-0.297,0.535-0.264
					C461.087,35.492,460.819,35.32,460.515,35.287z M442.958,24.091c-0.029,0.055-0.059,0.109-0.092,0.167
					c-0.166,0.017-0.242,0.042-0.305,0.038c-0.062,0-0.113-0.033-0.225-0.125c0.07-0.205,0.246-0.515,0-0.355
					c-0.227-0.264,0.389-0.431,0.441-0.702c0.072,0.046,0.143,0.088,0.264,0.083C443.159,23.619,443.097,23.836,442.958,24.091z
					 M441.46,32.201c0.045-0.242,0.092-0.496,0.438-0.443C441.86,32.013,441.71,32.16,441.46,32.201z M440.837,24.964
					c0.447-0.371,0.268-0.836,1.061-0.881C441.71,24.497,441.505,25.316,440.837,24.964z M441.81,22.496
					c-0.041-0.275,0.076-0.393,0.352-0.355C442.202,22.416,442.085,22.533,441.81,22.496z M442.308,24.601
					c0.078-0.046,0.166-0.084,0.209-0.167c0.154,0.104,0.082,0.292-0.068,0.388c-0.078,0.055-0.184,0.084-0.287,0.055
					C442.144,24.718,442.22,24.652,442.308,24.601z M440.837,32.113c0.033-0.385,0.238-0.588,0.623-0.617
					C441.46,31.904,441.251,32.113,440.837,32.113z M440.874,32.912c0.066-0.098,0.213-0.121,0.23-0.268
					c0.166,0.041,0.188,0.166,0.129,0.271c-0.062,0.117-0.217,0.209-0.393,0.166C440.829,33.003,440.845,32.953,440.874,32.912z
					 M442.073,33.257c0.209,0.004,0.264-0.15,0.531-0.088C442.741,33.47,442.011,33.587,442.073,33.257z M460.782,35.642
					c-0.109,0.275-0.168,0.6-0.619,0.527C460.038,35.951,460.401,35.378,460.782,35.642z"/>
				<path fill="#FFFFFF" d="M80.661,20.349L80.661,20.349c0.01-0.982,0.024-1.969,0.044-2.951c0.033-1.967,0.07-3.927,0.046-5.848
					c-0.013-0.961-0.04-1.914-0.09-2.85c-1.531-2.324-3.439-4.266-4.941-6.613c-7.386-0.301-14.927-0.887-22.234-0.975
					c0.121,2.912,0.86,6.686-0.178,9.176l-0.002,0.004c0.986,0.822,3.013,0.613,4.68,0.526c-0.14,9.496,0.343,19.075-0.267,28.063
					c-1.324,0.049-2.707,0.049-3.792,0.35c0.006,0.105,0.017,0.217,0.023,0.322c0.184,2.674,0.489,5.672,0.417,8.676
					c1.812,0.072,3.64,0.08,5.476,0.068c3.674-0.035,7.39-0.168,11.105-0.15c1.857,0.008,3.714,0.053,5.564,0.17
					c0.587-0.422,0.649-1.178,1.151-1.762c0.455-0.531,1.189-0.869,1.676-1.412c0.271-0.305,0.523-0.82,0.794-1.236
					c0.864-1.342,0.618-2.424,0.618-4.5l0,0c0-0.084,0.002-0.162,0.002-0.246c0.013-3.123,0.251-6.26,0.088-9.234
					c-0.002-0.047,0-0.092-0.002-0.139c-0.003-0.016,0-0.037-0.003-0.053c-0.102-1.885,0.099-3.789,0.09-5.682
					C80.921,22.842,80.65,21.577,80.661,20.349z M56.043,5.349c-0.071,0.238-0.205,0.41-0.376,0.547
					c-0.171,0.139-0.38,0.242-0.593,0.335C55.297,5.837,55.506,5.429,56.043,5.349z M55.78,9.144
					c-0.276,0.012-0.301-0.23-0.353-0.443c0.081-0.013,0.157-0.004,0.221,0.021c0.127,0.045,0.209,0.15,0.205,0.258
					C55.851,9.035,55.83,9.093,55.78,9.144z M64.69,16.998c0,0,0,0,0.002,0c0.044,0.021,0.061,0.054,0.075,0.088
					c0.002,0.008,0.018,0.016,0.018,0.024c0,0.005-0.004,0.009-0.004,0.017c0.008,0.129-0.144,0.279-0.33,0.222
					c-0.008,0-0.017,0.004-0.025,0c0.019-0.138,0.108-0.205,0.192-0.28C64.642,17.043,64.669,17.022,64.69,16.998z M64.072,27.671
					c0.034,0.037,0.081,0.059,0.132,0.076c0.096,0.033,0.205,0.053,0.265,0.121c0.031,0.037,0.048,0.082,0.044,0.154h-0.002
					C64.256,28.019,64.018,27.994,64.072,27.671L64.072,27.671z M62.927,20.465c0.008-0.121,0.034-0.222,0.088-0.292h0.35
					c-0.002,0.041,0.003,0.07,0.013,0.1c0.002,0.004,0.006,0.013,0.008,0.017c0.029,0.07,0.08,0.121,0.069,0.233h-0.002
					c-0.175,0.087-0.24,0.154-0.382,0.13c-0.042-0.004-0.087-0.018-0.148-0.043C62.917,20.553,62.925,20.511,62.927,20.465z
					 M57.808,44.613c0.048-0.275,0.073-0.572,0.177-0.793c0.205-0.029,0.338,0.012,0.439,0.088
					C58.301,44.224,58.171,44.539,57.808,44.613z M59.571,20.704c-0.031,0.029-0.088,0.054-0.136,0.083
					c-0.033,0.018-0.057,0.038-0.094,0.055c-0.002,0-0.002,0-0.004,0.004c-0.282,0.117-0.672,0.159-0.821-0.055c0,0,0,0,0-0.004
					c-0.015-0.455,0.282-0.764,0.669-0.781c0.123-0.004,0.254,0.018,0.388,0.08c-0.188,0.146-0.171,0.4,0,0.613
					C59.573,20.699,59.573,20.699,59.571,20.704z M59.573,20.349c0.222-0.256,0.911-0.498,1.147-0.439
					C60.521,20.24,60.12,20.369,59.573,20.349z M71.748,39.584c-1.307,0.051-2.366,0.033-3.542,0.059
					c-0.363,0.004-0.736,0.012-1.135,0.029c-0.296-6.096-0.136-12.422-0.104-18.676c0.017-3.401-0.004-6.781-0.161-10.09h0.002
					c0.451-0.107,1.012-0.162,1.584-0.184c0.955-0.037,1.949,0.004,2.564,0.009c-0.061,3.747-0.658,7.357-0.441,10.942
					c0.08,1.34,0.546,2.66,0.529,3.969c-0.007,0.43-0.145,0.84-0.17,1.256c0,0.021-0.006,0.047-0.006,0.068l0,0
					c0,0.004,0,0.008,0,0.012c-0.111,4.078,0.712,8.166,0.867,12.338C71.739,39.404,71.745,39.496,71.748,39.584L71.748,39.584z
					 M73.689,35.877c-0.028-0.205,0.015-0.34,0.088-0.439c0.146,0.025,0.234,0.146,0.229,0.26
					C74.002,35.804,73.909,35.906,73.689,35.877z M79.647,16.621c0.047,0.047,0.067,0.109,0.042,0.197
					c-0.104-0.014-0.156,0.021-0.175,0.092c-0.243,0.059-0.176-0.18-0.354-0.18C79.163,16.533,79.509,16.488,79.647,16.621z
					 M78.013,27.32c0.006,0.088-0.002,0.16-0.023,0.223c-0.061,0.18-0.235,0.246-0.505,0.217c-0.077-0.312,0.094-0.543,0.309-0.535
					C77.865,27.228,77.94,27.257,78.013,27.32z"/>
				<path fill="#FFFFFF" d="M411.563,30.166c0-0.084-0.004-0.168-0.004-0.25c-0.004-0.209-0.008-0.418-0.014-0.627
					c0.051-0.197,0.018-0.305-0.049-0.381c-0.059-0.066-0.139-0.103-0.217-0.15c0.316-0.885,0.379-2.033,0.375-3.242
					c-0.012-0.567-0.029-1.14-0.029-1.695c-0.008-0.414-0.016-0.822-0.016-1.225c0.004-0.292,0.012-0.58,0.023-0.864
					c0-0.009,0-0.021,0-0.029c-0.334-0.226-1.252,0.134-1.057-0.618c0.432,0.051,0.832-0.221,1.057-0.264
					c0.018-1.75,0.025-3.492,0.014-5.214c-0.033-5.234-0.26-10.273-1.07-14.73c-3.059-0.009-5.783,0.218-8.736,0.267
					c-0.568,1.521-0.576,3.167-0.535,4.846c0.014,0.586,0.029,1.18,0.033,1.77c0.004,0.5,0.004,1.002-0.029,1.504
					c-0.096,1.562-0.375,3.108-0.441,4.674c-0.018,0.371-0.006,0.756,0.016,1.141c0.066,1.144,0.256,2.322,0.25,3.447
					c-0.004,0.167-0.004,0.342-0.004,0.514c-0.008,0.961-0.008,1.934,0.01,2.865c0.012,0.711,0.037,1.392,0.082,2.006
					c0.025,0.305,0.025,0.609,0.014,0.914c-0.062,1.525-0.465,3.025-0.352,4.512c0.025,0.34,0.07,0.678,0.158,1.012
					c-0.02,0.191-0.033,0.385-0.045,0.586c-0.004,0.033-0.008,0.066-0.008,0.1c0.008-0.004,0.012-0.016,0.02-0.025
					c0.209-0.168,0.209-0.543,0.568-0.568c-0.08-0.105-0.121-0.238-0.092-0.447c0.268-0.104,0.342-0.062,0.531,0.088
					c-0.072,0.062-0.227,0.531,0.088,0.443c-0.26,0.275-0.803,0.258-0.883,0.711c-0.07-0.021-0.088-0.092-0.18-0.092
					c0.01-0.037,0-0.055-0.02-0.066c-0.01-0.01-0.021-0.014-0.039-0.017c-0.029,0.506-0.016,1.045,0.006,1.596
					c0.082,2.227,0.459,4.746,0.441,7.133c-0.004,0.359-0.012,0.713-0.033,1.064c-0.037,0.531-0.037,1.061-0.012,1.596
					c0.07,1.562,0.35,3.121,0.543,4.578h9.264c0.463-3.283,0.525-7.014,0.484-10.795C411.651,34.203,411.601,32.164,411.563,30.166z
					 M409.415,29.334c-0.006,0.039,0,0.076,0.012,0.131c-0.051-0.022-0.088-0.051-0.129-0.084c-0.125-0.096-0.234-0.213-0.494-0.18
					c0.047-0.66,0.439-0.828,0.977-0.799v-0.35c0.275,0.062,0.166,0.062,0.441,0c-0.059,0.334-0.609,0.631-0.191,0.957
					c0.008,0.004,0.008,0.008,0.018,0.012c-0.014,0.125-0.127,0.146-0.252,0.154C409.626,29.189,409.435,29.175,409.415,29.334z
					 M410.048,20.728c-0.029-0.204,0.012-0.334,0.088-0.438C410.528,20.223,410.464,20.878,410.048,20.728z M407.413,30.349
					c-0.004,0-0.012,0-0.016-0.004c0.012-0.043,0.041-0.07,0.074-0.1c0.188-0.143,0.639-0.121,0.719-0.076
					C408.065,30.425,407.688,30.466,407.413,30.349z M401.532,31.218c0.082-0.154,0.272-0.203,0.463-0.25
					c0.264-0.066,0.522-0.143,0.463-0.531h0.264c-0.092,0.225-0.104,0.535-0.092,0.883c-0.312,0.004-0.496,0.037-0.693,0.041
					c-0.1,0.004-0.217-0.004-0.355-0.029c-0.033-0.004-0.059-0.004-0.096-0.012C401.493,31.277,401.515,31.253,401.532,31.218z
					 M407.483,29.289c-0.18,0.514-0.654,0.1-0.793-0.176C406.882,28.679,407.27,29.201,407.483,29.289z M408.808,30.525
					c0.268,0.012,0.443-0.066,0.572-0.188c0.022-0.014,0.035-0.035,0.051-0.051c0.055-0.059,0.1-0.117,0.143-0.18
					c0.102-0.154,0.182-0.326,0.295-0.469c0.008,0.006,0.012,0.01,0.02,0.014c0.289,0.113,0.586,0.221,0.51,0.693
					c0.205,0.025,0.334-0.021,0.355-0.176c0.121,0.297-0.246,0.389-0.564,0.531c-0.209,0.1-0.393,0.217-0.408,0.439h-0.279h-0.338
					c-0.129-0.008-0.103,0.137-0.088,0.275c0.01,0.062,0.014,0.125,0,0.166c-0.059,0.006-0.117,0.006-0.17,0.006
					c-0.147-0.006-0.264-0.039-0.272-0.18C408.708,31.185,409.085,30.804,408.808,30.525z"/>
				<path fill="#FFFFFF" d="M381.103,0.345c-1.359-0.021-2.633,0.129-3.789,0.092c-1.066-0.037-2.373-0.66-3.531-0.351
					c-0.742,0.192-0.818,1.25-0.738,2.285c0.055,0.732,0.184,1.454,0.209,1.859c0.033,0.51,0.037,1.002,0.033,1.491
					c-0.014,1.685-0.188,3.192-0.113,4.225c0.017,0.2,0.041,0.384,0.08,0.547c1.75,0.15,3.496,0.18,5.293,0.093
					c0.936-0.051,3.617-0.451,4.143,0c0.268,0.221,0.301,1.156,0.289,2.142c-0.004,0.543-0.022,1.098-0.022,1.562
					c0,4.17,0.004,7.95-0.088,11.73c-0.066,0.197-0.037,0.285,0.025,0.348c0.101,0.1,0.279,0.117,0.238,0.359
					c-0.195,0.312-0.234,0.301-0.25,0.518c-0.004,0.066-0.004,0.154-0.014,0.279c-0.041,1.016-0.041,2.098-0.023,3.205
					c0.016,1.551,0.062,3.154,0.092,4.777c0.008,0.602,0.02,1.211,0.02,1.812c0,2.406-0.103,4.807-0.059,7.051
					c0.018,0.914,0.059,1.805,0.147,2.652c2.244,0.113,5.488,0.188,8.031-0.088c0.23-0.209,0.488-0.393,0.531-0.793
					c0.422-0.172,0.605-0.367,0.68-0.615c0.08-0.271,0.018-0.605-0.029-1.018c-0.016-0.15-0.029-0.311-0.033-0.486
					c-0.012-0.442,0.102-0.906,0.15-1.391c0.018-0.15,0.029-0.305,0.025-0.463c-0.021-0.711-0.221-1.449-0.264-2.205
					c-0.17-2.775-0.379-5.896-0.447-8.941c-0.02-1.188-0.023-2.361,0.006-3.498c0.033-1.248,0.103-2.548,0.111-3.901
					c0.006-0.519,0-1.04-0.02-1.571c-0.059-1.299-0.392-2.581-0.502-3.643c-0.025-0.271-0.041-0.531-0.033-0.77
					c0.016-0.396,0.221-0.798,0.264-1.236c0.023-0.238,0.037-0.477,0.041-0.715c0.029-1.244-0.15-2.548-0.213-3.726
					c-0.022-0.451-0.029-0.886,0-1.291c0.877-0.046,1.867-0.13,2.85-0.167c0.15-0.008,0.297-0.013,0.441-0.013
					c1.041-0.024,2.047,0.025,2.883,0.268c0.238-0.23,0.623-0.317,0.969-0.442c0.59-0.899,0.807-2.377,0.82-3.979
					c0.012-1.884-0.26-3.927-0.557-5.377C393.653,0.041,387.001,0.437,381.103,0.345z M386.132,6.255
					c0.074-0.066,0.199-0.096,0.355-0.083v0.263C386.327,6.419,386.044,6.523,386.132,6.255z M394.163,8.994
					c0.221-0.072,0.471-0.113,0.793-0.088c0.188,0.268-0.363,0.418-0.355,0.793C394.003,9.732,394.13,9.482,394.163,8.994z"/>
				<path fill="#FFFFFF" d="M345.462,0.613c-0.107,0.016-0.096,0.137-0.092,0.263c0.055,0.209,0.106,0.427,0.154,0.648
					c0.281,1.316,0.436,2.879,0.426,4.398c0,0.473-0.016,0.941-0.049,1.396c-0.059,0.188-0.025,0.279,0.045,0.343
					c0.117,0.105,0.344,0.101,0.397,0.276c-0.305,0.045-0.4,0.129-0.426,0.242c-0.008,0.029-0.008,0.054-0.012,0.083
					c0,0.075,0.008,0.159,0.008,0.251c0,0.041-0.004,0.083-0.012,0.129c-0.205,1.078-0.146,2.423-0.176,3.705
					c-0.047,1.984-0.041,4.053-0.004,6.125c0.037,1.834,0.096,3.668,0.18,5.435c0.1,2.193,0.191,4.42,0.225,6.6
					c0.029,1.73,0.025,3.432-0.049,5.043c-0.059,1.242-0.502,2.459-0.531,3.443c-0.004,0.205,0.016,0.432,0.041,0.656
					c0.098,0.881,0.359,1.893,0.402,2.963c0.016,0.363,0.016,0.731,0.016,1.094c-0.004,1.039-0.045,2.072-0.016,3.049h0.004
					c3.262-0.242,7.272,0.436,10.227-0.176c0.184-2.803,0.397-5.818,0.412-8.918c0.01-1.078-0.008-2.166-0.053-3.256
					c-0.105-2.271-0.297-4.604-0.34-6.844c-0.033-1.809,0.029-3.555,0.34-5.158c0.902-0.037,1.883-0.217,2.906-0.176
					c2.027,0.088,4.271,0.48,5.914,0c-0.043,0.469,0.562,0.226,0.793,0.268c1.617,0.268,3.719,0.013,5.385-0.18
					c0.184-3.601,0.26-7.161,0.242-10.703c-0.021-3.643-0.133-7.27-0.334-10.912C362.884,0.525,354.298,0.667,345.462,0.613z
					 M362.435,12.707c-2.256,0.435-4.615-0.183-6.654-0.183c-0.084-0.209-0.121-0.43-0.147-0.664
					c-0.049-0.493-0.004-1.027,0.022-1.566c0.004-0.104,0.012-0.213,0.012-0.318c0.004-0.305-0.008-0.601-0.062-0.893
					c1.705-0.807,4.574-0.451,6.797-0.351c-0.016,0.279-0.029,0.585-0.033,0.906c-0.004,0.372,0.004,0.76,0.012,1.153
					c0.022,0.659,0.055,1.324,0.107,1.913C362.47,12.703,362.454,12.703,362.435,12.707z M356.661,13.404v-0.175h0.443
					C357.196,13.525,356.829,13.367,356.661,13.404z M354.368,17.022c-0.016-0.313,0.418-0.438,0.619-0.263
					C355.124,17.189,354.552,17.177,354.368,17.022z M354.899,39.525c0.104,0.012,0.158-0.018,0.18-0.088
					c0.195,0.062,0.264,0.264,0.35,0.439c-0.07,0.371-0.609,0.701-0.885,0.354C354.724,40.005,355.163,39.939,354.899,39.525z
					 M354.104,23.904v0.18c-0.012-0.005-0.033,0-0.049,0c-0.154,0-0.367,0.05-0.305-0.164c0.004-0.008,0-0.008,0-0.016
					c0.074-0.071,0.199-0.092,0.353-0.088v0.029V23.904z M353.663,40.406c0.059-0.385,0.004-0.65-0.439-0.529
					c0.096-0.242,0.639-0.355,0.881-0.176C354.114,40.089,354.089,40.453,353.663,40.406z M353.575,23.289
					c0.062-0.233,0.191-0.397,0.529-0.35C354.101,23.298,353.825,23.398,353.575,23.289z M359.136,6.26
					c-0.205,0.024-0.365,0.171-0.527,0c0.051-0.247,0.088-0.497,0.44-0.442C358.972,6.068,359.169,6.046,359.136,6.26z
					 M359.573,5.818c0.076-0.131,0.227-0.193,0.443-0.176C359.987,5.988,359.749,6.035,359.573,5.818z M351.462,12.611
					c0.213,0.037,0.188-0.158,0.438-0.088C352.046,12.941,351.39,13.007,351.462,12.611z M349.339,16.228
					c-0.012-0.191,0.312-0.041,0.443-0.088C349.831,16.5,349.401,16.441,349.339,16.228z M348.282,21.084
					c-0.227-0.012-0.344-0.133-0.352-0.355c0.105-0.1,0.314-0.096,0.527-0.088C348.532,20.925,348.378,20.975,348.282,21.084z
					 M346.431,17.64c-0.012-0.154,0.105-0.188,0.088-0.351h0.264C346.823,17.566,346.702,17.682,346.431,17.64z M346.339,17.816
					c0.213,0.055,0.414,0.117,0.443,0.352c-0.125-0.033-0.201-0.012-0.25,0.029c0,0,0,0,0,0.004
					c-0.121,0.109-0.102,0.359-0.369,0.322C346.169,18.234,346.415,18.185,346.339,17.816z M346.782,23.64
					c-0.029,0.117-0.154,0.143-0.18,0.264c-0.201,0.029-0.096-0.251-0.264-0.264C346.411,23.332,346.653,23.541,346.782,23.64z
					 M347.401,32.994c-0.051,0.365-0.326,0.498-0.795,0.439C346.686,33.107,346.966,32.974,347.401,32.994z M346.694,38.113
					c0.631-0.25,0.965-0.803,1.764-0.881c0.17-0.014-0.102-0.297,0-0.531c0.359-0.092,0.393,0.139,0.529,0.264
					c0.113-0.018,0.113-0.264,0-0.264c0.242-0.191,0.402,0.246,0.795,0c-0.105,0.484-0.594,0.586-0.883,0.881
					c0.047,0.113,0.098,0.193,0.139,0.268c0.088,0.154,0.133,0.268-0.051,0.527c0.033,0.004,0.051,0,0.076-0.004
					c0.103-0.006,0.158-0.055,0.184-0.135c0.074-0.205,0-0.555,0.359-0.48c0.033,0.15-0.07,0.168-0.176,0.18
					c0.033,0.043,0.051,0.08,0.07,0.117c0.146,0.26,0.01,0.426-0.078,0.643c-0.062,0.146-0.096,0.318,0.008,0.56
					c-0.055-0.029-0.121-0.041-0.188-0.059c-0.059-0.012-0.117-0.021-0.184-0.029c-0.641-0.055-1.643,0.176-2.16-0.25
					c-0.037-0.033-0.084-0.059-0.117-0.102C346.845,38.494,346.632,38.439,346.694,38.113z M352.075,21.523
					c-0.037,0.367,0,0.65,0.355,0.617c-0.121,0.113-0.039,0.436-0.264,0.443c-0.025-0.037-0.055-0.075-0.08-0.109
					c-0.019-0.029-0.045-0.059-0.07-0.083c-0.283-0.33-0.639-0.543-0.734-1.22C351.485,21.347,351.888,21.334,352.075,21.523z
					 M351.368,43.582c0.156-0.164,0.26,0.037,0.443,0.088C351.825,43.816,351.235,43.849,351.368,43.582z M352.519,34.494
					c-0.055,0.242-0.092,0.496-0.443,0.441C352.13,34.695,352.167,34.439,352.519,34.494z M352.519,44.462
					c0.184,0.055,0.334,0.139,0.262,0.443C352.427,45.005,352.347,44.634,352.519,44.462z M353.575,44.023
					c0.17,0.326-0.033,0.619-0.439,0.619C353.095,44.25,353.183,43.982,353.575,44.023z M354.724,39.525
					c-0.07,0.188-0.217,0.309-0.527,0.264C354.167,39.492,354.519,39.334,354.724,39.525z M356.311,41.554
					c0.037,0.359-0.289,0.355-0.176,0.795c-0.338,0.104-0.586,0.459-0.973,0.264C355.618,42.328,355.788,41.769,356.311,41.554z
					 M363.724,18.966c0.158-0.014,0.188,0.103,0.355,0.087c0.037,0.276-0.193,0.284-0.443,0.263
					C363.599,19.136,363.694,19.083,363.724,18.966z M366.192,19.316c-0.016,0.397-0.43,0.397-0.617,0.619
					C365.511,19.805,365.737,19.22,366.192,19.316z"/>
				<path fill="#FFFFFF" d="M48.811,40.027c0.056-0.006,0.112-0.014,0.163-0.014c0.153,0.004,0.255,0.059,0.188,0.275
					c-0.059,0.088-0.121,0.121-0.188,0.131c-0.131,0.012-0.278-0.084-0.44-0.102c-0.082-0.008-0.165,0.004-0.255,0.059
					c-0.042-0.283,0.438-0.184,0.177-0.438h-0.002c-3.86,0.162-7.585,0.459-11.382,0.176c0.165-0.707-0.09-1.258-0.085-1.943
					c0.006-0.877,0.376-1.695,0.44-2.562c0.152-1.963-0.798-3.934-0.267-5.994c0.004,0,0.004,0,0.008,0
					c0.756,0.02,1.119-0.08,1.759,0c0.38-0.113-0.126-0.557,0.351-0.531c0.226,0.018,0.125,0.363,0.276,0.455
					c0.05,0.033,0.127,0.033,0.257-0.012c0.292-0.326,0.591-0.94,1.497-0.883c0.418-0.246-0.044-0.818,0.531-0.885
					c1.04,1.053-0.874,1.312-1.587,1.676c0.29,0.053,0.599,0.082,0.913,0.096c0.47,0.012,0.948-0.021,1.385-0.096
					c0.438-0.076,0.835-0.197,1.144-0.352c0,0,0,0,0.002,0c0.178,0.172,0.426,0.264,0.714,0.309
					c0.865,0.135,2.102-0.166,2.989-0.133c0.156-0.451,0.015-0.92,0-1.412c-0.078-2.674,0.015-5.854-0.441-8.205h-0.002
					c-3.384,0.189-6.677,0.594-10.056,0.531c-0.057-0.489-0.111-1.012-0.161-1.551c-0.227-2.444-0.37-5.285-0.192-7.449
					c2.586,0.021,5.401-0.18,8.072-0.184c2.669-0.004,5.192,0.184,7.191,0.977V3.232c-0.77-0.322-1.606-0.552-2.492-0.719
					c-3.839-0.719-8.619-0.201-13.037-0.251c-2.544-0.029-5.475-0.042-7.765,0.088c-0.405,2.339-0.372,4.935-0.355,7.771
					c0,0.401,0.002,0.811,0.002,1.228c0,2.018-0.131,4.094-0.089,5.999c0.033,1.434-0.034,2.812,0.067,4.069
					c0.054,0.719,0.163,1.396,0.376,2.018c-0.846,1.896-0.547,4.551-0.443,6.973c0.275,6.238-0.155,12.951,0.618,18.529
					c7.257,0.234,15.596-0.301,23.206-0.356c0.236-1.475,0.399-3.396,0.37-5.264c-0.017-1.123-0.103-2.227-0.282-3.203
					C51.231,39.834,49.682,39.888,48.811,40.027z M44.661,26.435v-0.352c0.207-0.029,0.324,0.029,0.353,0.176
					c0.01,0.051,0.01,0.109,0,0.176H44.661L44.661,26.435z M35.707,7.293c0.01,0.043,0.019,0.08,0.04,0.113
					c0.002,0.004,0.012,0.004,0.017,0.008c0.019,0.025,0.038,0.047,0.075,0.051c-0.017,0.196-0.219,0.196-0.443,0.18l0,0
					c0.08-0.309-0.017-0.293,0.176-0.531C35.664,7.127,35.684,7.21,35.707,7.293z"/>
				<path fill="#FFFFFF" d="M26.307,48.761c0.092-0.146,0.136-0.264,0.149-0.367c0.002-0.01,0-0.017,0-0.025
					c0.002-0.043,0.004-0.084-0.004-0.121c-0.008-0.047-0.021-0.088-0.042-0.129l0,0c-0.009-0.021-0.024-0.043-0.036-0.059
					c-0.083-0.143-0.215-0.277-0.328-0.447c0.111,0.004,0.222,0.004,0.33,0c0.32-0.01,0.608-0.055,0.814-0.176
					c-0.808-6.635-2.757-12.393-3.968-18.354c-0.627-0.168-1.45-0.143-1.59-0.793c0.441-0.197,0.675-0.293,1.164-0.392
					c0.082-0.018,0.15-0.035,0.247-0.051c-0.311-2.51-1.205-4.438-1.498-6.969c2.329-0.342,5.151,0.911,5.733-1.324
					c0.113-0.426,0.109-0.961,0.05-1.542c-0.098-0.974-0.355-2.063-0.491-2.958c-0.119-0.781-0.257-1.578-0.363-2.368
					c-0.102-0.757-0.173-1.504-0.167-2.218c0.008-0.557,0.079-1.057,0.136-1.533c0.05-0.422,0.082-0.832,0.042-1.236
					c0-0.017,0.002-0.038,0-0.055c-0.201-1.814-1.289-3.33-0.794-5.382C17.063,1.89,8.552,2.279,0.457,2.087
					C0.108,7.373,0.365,13.041,0.37,18.498c0.092,0.121,0.196,0.121,0.296,0.084C0.733,18.552,0.8,18.51,0.86,18.481
					c0.09-0.05,0.167-0.071,0.215,0.017l0,0c-0.101,0.125-0.248,0.201-0.387,0.289c-0.24,0.15-0.451,0.334-0.319,0.855
					c0.14,0.18,0.374-0.622,0.706-0.263c-0.266,0.146,0.146,0.97-0.266,0.97c0-0.005,0-0.005,0-0.005
					c0.006-0.134-0.002-0.2-0.015-0.233c-0.01-0.025-0.022-0.038-0.039-0.029c-0.041,0.016-0.102,0.096-0.167,0.108
					c-0.006,0-0.013-0.004-0.019-0.004c-0.037,0-0.075-0.021-0.112-0.1l0,0c0.081,1.996-0.41,4.185-0.455,6.324
					C-0.002,26.714,0,27.019,0.015,27.32c0.029,0.631,0.273,1.275,0.384,1.889c0.025,0.139,0.05,0.271,0.059,0.406
					c0.037,0.805-0.203,1.5,0,2.293c0.33,0.389,0.509,0.899,0.599,1.471c0.336,2.18-0.718,5.365-0.512,6.998
					c0.011,0.08,0.034,0.16,0.063,0.238c0.086,0.242,0.234,0.494,0.29,0.736c0.462,1.926-0.232,4.465,0.261,6.186
					c0.163,0.576,0.459,1.057,0.975,1.4c2.77,0.008,5.388-0.143,7.94-0.356c0.073-0.543,0.136-1.094,0.192-1.646
					c0.108-1.102,0.184-2.217,0.231-3.346c0.024-0.564,0.04-1.127,0.048-1.695c0.017-0.85,0.017-1.705,0.004-2.566
					c-0.077-6.004-0.735-12.145-1.092-17.922c0.052-0.029,0.117-0.055,0.186-0.076c0.537-0.171,1.508-0.142,2.018-0.012
					c0.063,2.15,0.76,3.855,1.061,5.648c0.192,1.17,0.41,2.293,0.635,3.404c0.294,1.449,0.61,2.865,0.958,4.254
					c0.194,0.775,0.397,1.545,0.608,2.314c1.182,4.291,2.12,8.547,3.885,12.26c0.148-0.037,0.315-0.057,0.477-0.082
					c1.918-0.311,4.645,0.195,6.404-0.268c-0.048,0.172,2.093,0.598,1.675-0.443C27.032,48.16,26.721,49.084,26.307,48.761z
					 M25.516,10.205c0.041-0.041,0.075-0.062,0.108-0.07c0.048-0.018,0.094,0.004,0.146,0.019c0.048,0.022,0.104,0.043,0.186,0.051
					h-0.002c0.042,0.163-0.389,0.279-0.443,0.096C25.505,10.275,25.505,10.242,25.516,10.205z M1.514,21.142
					c-0.372-0.108-0.474-0.033-0.881,0c-0.065-0.059-0.061-0.108-0.046-0.163c0.015-0.05,0.04-0.101,0.054-0.175
					c0.008-0.055,0.01-0.113-0.008-0.193c0.639-0.004,0.823-0.467,1.057-0.881c0.002,0,0.002,0,0.002,0
					c0.359,0.289,0.129,0.693-0.042,1.049C1.585,20.912,1.531,21.034,1.514,21.142z M17.13,6.85
					c0.194-0.013,0.282,0.075,0.265,0.263c-0.157-0.008-0.185,0.109-0.353,0.092c-0.008-0.049-0.008-0.087-0.004-0.116
					C17.051,6.988,17.109,6.938,17.13,6.85z M15.986,7.025c0.284,0.131,0.489,0.339,0.616,0.619
					c-0.357,0.246-0.644-0.201-0.616-0.614C15.986,7.025,15.986,7.025,15.986,7.025z M9.544,3.32h0.353h0.002
					c0.029,0.107,0.012,0.166-0.017,0.217C9.847,3.591,9.79,3.628,9.732,3.662C9.728,3.666,9.724,3.666,9.72,3.669
					C9.686,3.691,9.653,3.72,9.634,3.757c0,0-0.002,0-0.002,0.004c-0.142,0.01-0.094-0.17-0.079-0.316l0,0
					C9.557,3.394,9.557,3.353,9.544,3.32z M9.498,11.236c0.029-0.459,0.071-0.918,0.046-1.299c2.03-0.764,5.426-0.162,8.029-0.351
					c0.092,0.431,0.113,0.956,0.1,1.487c-0.008,0.268-0.023,0.535-0.042,0.789c-0.017,0.255-0.04,0.498-0.059,0.719
					c-2.908-0.297-5.22,0.192-8.029,0c-0.042-0.205-0.061-0.426-0.065-0.652C9.475,11.705,9.486,11.47,9.498,11.236z M8.046,44.087
					H8.044c0.029,0.125,0.207,0.1,0.263,0.199c0.017,0.029,0.017,0.076,0.004,0.135c-0.002,0.008,0,0.008,0,0.016l0,0
					c-0.355-0.055-0.355,0.234-0.706,0.176C7.6,44.521,7.623,44.459,7.652,44.4c0.1-0.191,0.343-0.246,0.305-0.58
					c0.067,0.016,0.121,0.016,0.165,0.012c0.138-0.016,0.207-0.104,0.364-0.1c0.046,0.045,0.062,0.096,0.056,0.141
					C8.523,44.015,8.299,44.128,8.046,44.087z M7.955,31.203c-0.044,0.045-0.077,0.062-0.102,0.066
					c-0.084,0.014-0.113-0.117-0.249-0.154C7.619,30.855,8.021,30.902,7.955,31.203z M8.529,26.748
					c-0.042,0-0.083-0.016-0.217-0.045c-0.008-0.096,0.017-0.172,0.062-0.226c0.067-0.082,0.173-0.111,0.259-0.078
					c0.08,0.037,0.138,0.133,0.117,0.305c-0.104,0.021-0.148,0.033-0.184,0.041C8.554,26.744,8.54,26.748,8.529,26.748z
					 M8.397,4.113c0.092-0.246,0.771-0.418,0.792,0C8.897,4.267,8.801,4.072,8.397,4.113z M7.253,2.437
					c0.019-0.154,0.148-0.199,0.351-0.175v0.263C7.558,2.534,7.52,2.534,7.487,2.53C7.391,2.517,7.338,2.459,7.253,2.437z
					 M6.486,2.642c0.004-0.008,0.006-0.02,0.013-0.033c0.002-0.004,0.008-0.008,0.01-0.017c0.075-0.134,0.207-0.213,0.476-0.155
					c0,0,0,0,0.002,0c0.104,0.285-0.055,0.301-0.173,0.359C6.737,2.839,6.676,2.893,6.72,3.052C6.793,3.14,6.95,3.207,7.107,3.223
					c0.052,0.009,0.104,0.005,0.152-0.005c0.064-0.008,0.123-0.033,0.167-0.074c-0.004-0.042-0.025-0.066-0.052-0.08
					c-0.09-0.045-0.259-0.008-0.301-0.1c0.082-0.096,0.178-0.109,0.278-0.08C7.374,2.888,7.397,2.902,7.418,2.91
					c0.01,0.004,0.021,0.008,0.031,0.013c0.006,0.005,0.013,0.009,0.019,0.013c0.121,0.066,0.238,0.167,0.311,0.209
					c0.071-0.021,0.09-0.092,0.177-0.092c0.015-0.188-0.073-0.275-0.263-0.264l0,0C7.911,2.55,8.237,2.777,8.479,2.855
					c0.033,0.014,0.067,0.022,0.096,0.022C8.558,3.361,8.408,3.361,8.23,3.603C8.224,3.611,8.22,3.616,8.216,3.625
					c-0.015,0.02-0.027,0.045-0.042,0.066c-0.012,0.025-0.027,0.042-0.042,0.07c-0.414-0.07-0.821-0.041-1.18-0.17
					C6.737,3.515,6.539,3.386,6.368,3.144C6.408,2.976,6.425,2.789,6.486,2.642z M6.612,4.067c-0.002-0.038,0.004-0.079,0.02-0.13
					h0.353h0.002c0.05,0.15-0.071,0.256-0.192,0.268C6.707,4.212,6.62,4.175,6.612,4.067z M6.103,43.468
					c0.294-0.062,0.324,0.146,0.354,0.351c-0.103,0.074-0.235,0.117-0.442,0.088C5.984,43.703,6.03,43.568,6.103,43.468z
					 M5.063,39.73c0.027-0.088,0.054-0.172,0.069-0.234h0.265h0.002c-0.008,0.051-0.014,0.08-0.02,0.121
					c-0.067,0.41-0.101,0.521-0.159,0.939c-0.059-0.012-0.107-0.029-0.142-0.059C4.881,40.357,4.977,40.005,5.063,39.73z
					 M3.191,29.347c0.046-0.01,0.086-0.014,0.123-0.01c0.251,0.029,0.28,0.398,0.142,0.539C3.202,29.857,3.07,29.48,3.191,29.347z
					 M2.395,5.086c0.003-0.005,0.003-0.005,0.003-0.005c0.221-0.1,0.505-0.142,0.616-0.351c0.027,0.005,0.044,0.017,0.05,0.038
					C3.093,4.853,3.01,5.044,2.878,5.216C2.75,5.387,2.575,5.533,2.398,5.521c0,0,0,0.004-0.003,0.004V5.086z M16.955,26.171
					L16.955,26.171c0.071-0.572,0.036-0.438,0-1.057c0-0.004,0-0.004,0-0.004c0.031-0.029,0.077-0.047,0.125-0.059
					c0.015-0.004,0.029-0.008,0.048-0.013c0.052-0.013,0.11-0.017,0.177-0.013c0,0,0.002,0,0.004,0
					c-0.09-0.121-0.234-0.18-0.355-0.268l0,0c0.119-0.375,0.376,0.209,0.706-0.088c0.033,0.029,0.048,0.08,0.061,0.126
					c0.012,0.046,0.025,0.088,0.052,0.116c0.002,0,0.002,0,0.004,0.005c0.027,0.024,0.071,0.034,0.142,0.017
					c0.002,0,0.002,0.004,0.006,0.004c0-0.004,0,0,0.002,0C17.6,25.345,17.561,26.039,16.955,26.171z M21.545,40.556
					c-0.031-0.078-0.044-0.18-0.036-0.279c0.029-0.309,0.234-0.668,0.564-0.693C22.069,40.08,22.103,40.615,21.545,40.556z"/>
				<path fill="#FFFFFF" d="M438.28,34.252c-0.025-0.994-0.059-1.996-0.07-2.994c-0.014-0.6-0.025-1.197-0.021-1.793
					c0.037-3.133,0.033-6.326-0.022-9.525c-0.096-6.059-0.363-12.149-0.855-18.007c-0.83-0.89-1.574-0.882-2.914-0.882
					c-4.637,0-10.234-0.283-15.264,0c-1.822,0.105-3.648-0.204-5.645,0c0,0.306,0.022,0.61,0.033,0.911
					c0.143,2.892,0.727,5.665,0.697,8.431c0,0.326-0.004,0.656-0.029,0.982c-0.037,0.609-0.283,1.248-0.262,1.854
					c0.004,0.112,0.029,0.226,0.059,0.339c0.053,0.209,0.125,0.413,0.121,0.631c-0.01,0.142-0.035,0.279-0.072,0.417
					c-0.103,0.384-0.297,0.757-0.371,1.175c-0.256,1.402-0.279,2.908-0.242,4.453c0.041,1.68,0.158,3.409,0.162,5.142
					c0.004,0.389,0,0.777-0.012,1.166c-0.025,0.109-0.01,0.176,0.02,0.23c0.08,0.133,0.271,0.154,0.248,0.387
					c-0.017,0.219-0.172,0.293-0.248,0.451c-0.037,0.084-0.062,0.18-0.02,0.344c0.045,0.041,0.141,0.041,0.258,0.029
					c0.121-0.014,0.264-0.033,0.402-0.037c0.158-0.01,0.309,0.008,0.4,0.096c-0.129,0.107-0.217,0.242-0.283,0.392
					c-0.055,0.129-0.098,0.268-0.113,0.422c-0.022,0.217,0.008,0.463,0.059,0.719c0.025,0.104,0.037,0.209,0.07,0.32
					c-0.025,0.033-0.07,0.047-0.113,0.068c-0.213,0.104-0.555,0.082-0.588,0.371c-0.014,0.84-0.004,1.654,0.016,2.461
					c0.131,4.811,0.785,9.096,0.953,13.865c3.25-0.027,6.746,0.473,9.705,0.176c0.137-0.35,0.195-0.83,0.207-1.383
					c0.035-1.391-0.229-3.25-0.283-4.748c-0.004-0.101-0.004-0.205-0.008-0.297c0-0.121-0.004-0.252-0.004-0.369
					c0.02-1.377-0.164-2.041-1.35-2.105c-0.055,0-0.096-0.008-0.15-0.008c0.012-0.113,0.033-0.225,0.055-0.338
					c0.062-0.342,0.129-0.686,0.059-0.969c0-0.014,0-0.025-0.006-0.033c0.059,0.221-0.209,0.074-0.107-0.164
					c0.234-1.205,0.297-2.541,0.283-3.949c-0.025-2.633-0.312-5.527-0.359-8.4c-0.004-0.293-0.016-0.59-0.012-0.887
					c0.022-4.512-0.062-9.036-0.088-13.143c2.051-0.176,3.994,0.066,6.174,0c0.193,1.972,0.246,4.082,0.264,6.228
					c0.012,1.885-0.004,3.794,0.004,5.682c0.004,0,0.008,0,0.012,0c0.506,0.093,0.682-0.592,1.133-0.263
					c-0.271,0.401-0.676,0.665-1.137,0.878c0,0-0.004,0.004-0.008,0.004c-0.158,0.506,0.1,0.594,0.26,0.785
					c0.041,0.051,0.074,0.104,0.092,0.184c-0.139,0.197-0.219,0.197-0.352,0c-0.008,0.121-0.004,0.238-0.012,0.359
					c-0.039,0.823-0.047,1.633-0.039,2.44c0,0.125,0.006,0.246,0.006,0.373c0,0.199,0.004,0.396,0.008,0.596
					c0.096,3.154,0.438,6.188,0.426,9.051c0,0.498-0.008,0.99-0.037,1.479c-0.414-0.033-0.84-0.154-1.236-0.092
					c-0.348,0.059-0.506,0.359-0.795,0.443c-0.312,0.092-0.408-0.352-0.705-0.088c-0.297,0.264,0.137,0.381-0.088,0.705
					c0.443-0.162,0.807-0.066,1.098,0.127c0.201,0.129,0.363,0.309,0.49,0.492c-0.213,0.279-0.465,0.162-0.67,0.309
					c-0.041,0.033-0.082,0.072-0.125,0.131c-0.129,0.004-0.158-0.102-0.17-0.213c-0.018-0.15-0.014-0.318-0.18-0.318
					c-0.109,0.146-0.18,0.322-0.414,0.348c-0.008,0.004-0.018,0.008-0.029,0.008c-0.051-0.352-0.594-0.381-0.916-0.553
					c-0.111-0.057-0.195-0.133-0.229-0.242c-0.008-0.029-0.014-0.049-0.017-0.074c-0.121-0.517,0.271-0.59,0.719-0.894
					c-0.408,0.051-0.531-0.121-0.789,0c-0.309,1.103-0.371,2.394-0.318,3.719c0.072,1.754,0.352,3.57,0.582,5.1
					c1.938,0.439,4.135-0.008,6.35,0c2.014,0.014,4.098,0.367,6.18,0.268c0-0.033,0-0.07,0-0.104
					c0.037-0.941-0.121-2.023-0.18-3.074c-0.051-0.824-0.022-1.617,0.201-2.311c0.045-0.143,0.088-0.289,0.154-0.422
					c-0.066-0.121-0.109-0.242-0.139-0.359c-0.096-0.381-0.037-0.748,0.014-1.125c0.029-0.209,0.049-0.422,0.033-0.635
					c-0.018-0.268-0.135-0.543-0.205-0.844c-0.029-0.125-0.055-0.254-0.055-0.393c-0.008-0.826,0.338-1.623,0.352-2.471
					C438.284,34.945,438.28,34.599,438.28,34.252z M420.015,26.464c-0.18-0.025-0.084-0.326-0.264-0.356
					c0.051-0.1,0.201-0.084,0.289,0.004c0.012,0.014,0.02,0.021,0.029,0.033C420.118,26.222,420.122,26.336,420.015,26.464z
					 M420.37,25.759c0.301-0.414,0.049-0.428-0.355-0.531c0.142-0.557,0.697-0.088,0.973,0
					C420.892,25.521,420.741,25.75,420.37,25.759z M418.603,19.584c0.289-0.213,0.322-0.676,0.793-0.705
					C419.438,19.471,419.028,19.693,418.603,19.584z M418.075,23.289c0.377,0.256,0.719,0.018,1.145,0.176
					c-0.057,0.313-0.07,0.669-0.25,0.861c-0.004,0.004-0.008,0.016-0.012,0.021c-0.15,0.033-0.246,0.013-0.326-0.024
					c-0.275-0.135-0.242-0.586-0.736-0.506C417.854,23.541,418.173,23.619,418.075,23.289z M415.782,25.58
					c-0.363-0.209-0.438,0.154-0.881,0.092c-0.154-0.682,0.734-0.318,1.057-0.531C415.97,25.361,415.815,25.412,415.782,25.58z
					 M415.077,10.23c-0.238-0.009-0.426-0.201-0.268-0.352C415.044,9.849,415.103,10,415.077,10.23z M414.2,27.525
					c-0.006,0-0.006,0-0.01,0c0.01-0.012,0.004-0.025,0.01-0.033c0.029-0.074,0.041-0.15,0.041-0.229
					c-0.004-0.248-0.1-0.527-0.051-0.887c0.289-0.184,0.52-0.422,1.057-0.356c-0.008,0.059,0.006,0.092,0.022,0.117
					c0.029,0.047,0.066,0.08,0.07,0.15c-0.037,0.121-0.107,0.209-0.195,0.285c-0.139,0.111-0.318,0.188-0.51,0.242
					c0.047,0.074,0.076,0.125,0.092,0.17c0.055,0.121,0.037,0.201-0.004,0.447C414.517,27.429,414.462,27.584,414.2,27.525z
					 M414.02,33.521c0.154,0.051,0.363,0.045,0.438,0.18c0.025,0.283-0.389,0.316-0.529,0.176
					C413.915,33.716,414.036,33.687,414.02,33.521z M417.546,31.933h0.438c-0.023,0.238-0.229,0.301-0.438,0.355V31.933z
					 M418.87,27.742c0.125-0.041,0.258-0.082,0.397-0.162c0.066-0.037,0.143-0.084,0.217-0.146c-0.18-0.283-0.543-0.396-0.705-0.705
					c0.029-0.176,0.18-0.234,0.268-0.351c0.291,0.627,1.244,0.836,0.885,1.851c-0.045-0.039-0.088-0.064-0.133-0.088
					c-0.184-0.109-0.359-0.105-0.557-0.059c-0.305,0.074-0.66,0.225-1.166,0.146C418.368,27.888,418.614,27.822,418.87,27.742z
					 M419.22,33.257c-0.012,0.193-0.217,0.193-0.441,0.176C418.72,33.128,419.087,33.121,419.22,33.257z M420.544,36.08
					c0.336-0.066,0.117,0.42,0.176,0.621C420.36,36.785,420.415,36.22,420.544,36.08z M430.337,22.496
					c0.381-0.029,1.195-0.088,1.236-0.706h0.264c-0.08,0.489-0.344,0.317-0.088,0.794c-0.91-0.238-0.92,0.43-1.588,0.438
					C429.923,22.784,430.392,22.8,430.337,22.496z M437.311,41.462c0.059,0.297-0.146,0.326-0.355,0.355
					C436.919,41.543,437.03,41.425,437.311,41.462z"/>
				<path fill="#FFFFFF" d="M293.89,18.791c0-2.282-0.311-4.684-0.4-6.706c-0.006-0.163-0.01-0.321-0.014-0.481
					c-0.025-0.981-0.006-1.935-0.006-2.799c0.002-0.919-0.02-1.742-0.156-2.37c-0.162-0.748-1.553-2.28-2.207-2.999
					c-1.145-1.257-2.162-2.177-3.266-2.911c-6.336,0.982-14.381,0.268-21.35,0.617c0.008,0.293,0.016,0.598,0.023,0.907
					c0.017,0.677,0.035,1.387,0.043,2.114c0.021,1.996,0,4.119-0.158,5.978c0.023,0.008,0.049,0.012,0.074,0.021
					c1.17,0.408,2.857-0.122,4.074,0.154c-0.031,0.305-0.045,0.601-0.068,0.897c-0.094,1.362-0.102,2.669-0.074,3.981
					c0.029,1.42,0.086,2.857,0.098,4.383c0.008,0.881,0.002,1.779-0.039,2.74c0.012,0,0.02,0,0.033,0.004
					c0.664,0.172,0.445-0.539,0.936-0.539c-0.084,0.494-0.35,0.322-0.088,0.799c-0.236,0.07-0.738-0.121-0.857,0.062
					c-0.016,0.029-0.025,0.062-0.023,0.113c-0.121,5.041,0.107,10.152-0.09,14.91c-1.215-0.02-2.4-0.07-3.445-0.268
					c-0.107,0.414,0.443,0.15,0.268,0.619c-0.357,0.359-0.953-0.326-0.881,0.619c0.195,0.074,0.568,0.15,0.885,0.301
					c0.234,0.107,0.443,0.262,0.523,0.496c-0.227,0.297-0.49,0.146-0.701,0.33c-0.033,0.029-0.064,0.062-0.094,0.109
					c-0.098,0-0.137-0.092-0.166-0.193c-0.051-0.199-0.047-0.459-0.271-0.246c-0.035,0.041-0.059,0.092-0.084,0.143
					c-0.267,0.48-0.227,1.115-0.197,1.754c0.01,0.162,0.014,0.326,0.014,0.484c0,0.201,0.004,0.396,0.008,0.594
					c0,0.146,0.004,0.287,0.008,0.434c0.051,1.998,0.285,3.744,0.957,4.885h21.086c0.877-0.69,2.016-1.5,3.092-2.469
					c0.85-0.773,2.256-1.881,2.469-3.092c0.004-0.021,0.004-0.047,0.006-0.072c0.072-0.566-0.104-1.541-0.166-2.488
					c-0.006-0.088-0.012-0.176-0.016-0.264c-0.027-0.639,0.049-1.266,0.078-1.822c0.012-0.195,0.016-0.383,0.008-0.559
					c-0.057-1.393-0.205-2.883-0.244-4.371c-0.01-0.25-0.02-0.502-0.02-0.748c0.004-2.189,0.23-4.424,0.252-6.768
					c0.002-0.154,0.012-0.309,0.012-0.465c0-0.529-0.096-1.081-0.145-1.633c-0.021-0.221-0.033-0.443-0.033-0.66
					c0.01-0.651,0.213-1.32,0.268-2.029C293.88,19.801,293.89,19.296,293.89,18.791z M278.134,40.845
					c0-0.234-0.029-0.502,0.092-0.615c0.422,0.234,0.721-0.375,0.793,0.264C278.683,40.574,278.593,40.89,278.134,40.845z
					 M276.901,41.462c0.061,0.297-0.146,0.326-0.352,0.355C276.509,41.543,276.624,41.425,276.901,41.462z M278.311,44.466v0.44
					c-0.166,0.037-0.221,0.191-0.439,0.176C277.782,44.925,277.958,44.451,278.311,44.466z M280.429,18.206
					c-0.031-2.207-0.08-4.396-0.15-6.543c-0.008-0.242-0.016-0.489-0.023-0.727c-0.01-0.125-0.018-0.25,0.086-0.267
					c0.934,0.042,2.055-0.112,2.736,0.179c-0.012,0.306-0.016,0.601-0.023,0.898c-0.045,1.838-0.051,3.609-0.023,5.33
					c0.111,7.208,0.775,13.592,1.281,20.77h-0.055h-3.652c-0.016-0.822-0.027-1.654-0.039-2.488
					C280.491,29.752,280.511,23.919,280.429,18.206z M290.661,34.052c0.025,0.316-0.125,0.459-0.439,0.441
					C289.989,34.109,290.284,33.818,290.661,34.052z"/>
				<path fill="#FFFFFF" d="M265.249,39.375c-0.002-0.301-0.008-0.609-0.008-0.91h-14.553h-0.006
					c-0.047-1.697,0.113-3.164,0.133-4.588c0.01-0.74-0.016-1.467-0.133-2.207c-0.031-0.078-0.131-0.092-0.236-0.096
					c-0.172-0.008-0.363-0.004-0.291-0.254c0.123-0.264,0.309-0.67,0.406-1.074c0.07-0.277,0.09-0.549,0.029-0.787
					c-0.041-0.166-0.117-0.32-0.26-0.438c0.172-0.301,0.334-0.609,0.441-0.969c1.174,0.025,2.254-0.039,3.266-0.176
					c-0.004-0.051-0.027-0.084-0.059-0.113c-0.111-0.1-0.348-0.107-0.52-0.146c-0.162-0.033-0.266-0.088-0.131-0.272
					c0.201-0.049,0.318-0.016,0.41,0.043c0.102,0.066,0.176,0.162,0.301,0.209c0.066,0.023,0.146,0.033,0.258,0.012
					c0.465-0.059,0.674-0.769,0.977-0.701c0.436,0.463-0.686,0.873-0.273,1.053c0.004,0,0.004,0.004,0.008,0.004
					c0.117,0,0.24,0.004,0.361,0.004c0.129,0.004,0.258,0.004,0.387,0.004c0.18,0,0.355,0,0.523-0.012
					c0.375-0.021,0.709-0.088,0.934-0.26c0.225-0.158-0.059-0.826,0.176-0.973c0.619,0.873,1.23,1.365,2.826,1.061
					c0.012-0.705,0.023-1.596,0.088-2.443c0.023-0.281,0.051-0.56,0.086-0.824c-0.066-0.066-0.139-0.129-0.209-0.191
					c-0.25-0.234-0.51-0.459-0.762-0.693c0.213-0.543,0.492-0.066,0.971-0.26c0.016-0.283,0.012-0.543,0.012-0.811
					c0.002-0.914-0.059-1.754-0.1-2.535c-0.01-0.2-0.018-0.405-0.02-0.598c-0.006-0.309-0.006-0.613,0.02-0.91
					c-3.131-0.109-6.809,0.409-9.971,0.264c-0.254-2.449-0.244-4.797-0.324-7.383c-0.012-0.305-0.016-0.598-0.027-0.911
					c4.693-0.693,9.59-0.673,14.291,0c0.16-0.222,0.271-0.493,0.529-0.614c0.051-0.605,0.072-1.211,0.076-1.812
					c0.006-1.086-0.037-2.182-0.068-3.289c-0.014-0.492-0.012-0.994-0.012-1.5c0.002-0.301-0.006-0.597,0.004-0.898
					c-1.984-1.049-4.641-1.099-7.322-0.974c-4.766,0.222-10.178,0.008-14.998,0.088c-0.311,0.518-0.373,1.278-0.711,1.768
					c0.008,1.165,0.025,2.326,0.047,3.479c0.078,4.359,0.221,8.644,0.279,13.049c0.016,0.994,0.021,2.01,0.025,3.016
					c0.008,2.177-0.014,4.387-0.084,6.66c0.004,0.041,0.016,0.07,0.029,0.1c0.129,0.33,0.623,0.297,0.504,0.873
					c-0.107,0.084-0.229,0.154-0.332,0.242c-0.088,0.074-0.168,0.158-0.201,0.285c-0.146,2.068-0.183,4.226-0.139,6.379
					c0.072,3.23,0.34,6.434,0.758,9.236c7.164,0.428,15.217,0,22.586,0.092C265.335,44.378,265.269,41.826,265.249,39.375z
					 M248.938,30.349c-0.004,0-0.012,0-0.016-0.004c0.01-0.043,0.039-0.07,0.072-0.1c0.184-0.143,0.633-0.121,0.717-0.076
					C249.591,30.425,249.208,30.466,248.938,30.349z M243.099,30.437c-0.074-0.105-0.117-0.238-0.092-0.443
					c0.271-0.108,0.344-0.066,0.531,0.088c-0.066,0.059-0.228,0.527,0.088,0.443c-0.26,0.271-0.805,0.254-0.885,0.703
					c-0.061-0.014-0.086-0.062-0.146-0.076c-0.01-0.004-0.014-0.012-0.025-0.012c0.014-0.072-0.035-0.084-0.09-0.088
					c0.029-0.018,0.047-0.047,0.072-0.07C242.733,30.8,242.757,30.459,243.099,30.437z M244.526,32.873
					c0.129-0.121,0.264-0.232,0.336-0.408c0.084-0.318-0.385-0.088-0.441-0.264c0.096-0.201,0.146-0.443,0.262-0.623
					c-0.076-0.133-0.191-0.203-0.326-0.238c-0.258-0.057-0.59,0.01-0.895,0.025c-0.125,0.01-0.244,0-0.352-0.025
					c-0.037-0.008-0.072-0.012-0.104-0.024c0.002-0.047,0.025-0.072,0.043-0.109c0.07-0.168,0.262-0.213,0.484-0.23
					c0.061-0.004,0.121-0.008,0.184-0.012c0.141-0.879,1.498-0.574,1.76,0.088c-0.193,0.084-0.301,0.271-0.363,0.488
					c-0.098,0.348-0.074,0.785-0.033,1.129c0.016,0.125,0.031,0.242,0.045,0.324c-0.012,0.047-0.037,0.084-0.068,0.117
					c-0.049,0.055-0.117,0.098-0.195,0.131c-0.213,0.082-0.492,0.092-0.619,0.02C244.3,33.091,244.411,32.982,244.526,32.873z
					 M244.862,34.318c0.113,0.121,0.432,0.039,0.438,0.264c-0.002,0.291-0.248,0.338-0.525,0.354
					C244.729,34.654,244.929,34.625,244.862,34.318z M249.009,29.289c-0.182,0.514-0.658,0.1-0.797-0.176
					C248.407,28.679,248.792,29.201,249.009,29.289z M257.302,25.584c-0.359-0.213-0.439,0.15-0.881,0.088
					c-0.154-0.682,0.74-0.318,1.057-0.531C257.489,25.361,257.337,25.412,257.302,25.584z M251.655,20.291
					c0.395-0.067,0.332,0.588-0.088,0.438C251.538,20.524,251.583,20.394,251.655,20.291z M252.095,20.996
					c0.42,0.055,0.814,0.201,0.887-0.268c0.271,0.13,0.305,0.594,0.174,0.882C252.577,21.63,251.936,21.714,252.095,20.996z
					 M253.595,26.996c-0.039-0.08-0.078-0.16-0.176-0.18c-0.031-0.33,0.402-0.455,0.619-0.264
					C254.054,26.865,253.907,27.015,253.595,26.996z M255.72,27.525c-0.002,0-0.002,0-0.006,0c0.006-0.008,0.004-0.012,0.006-0.016
					c0.033-0.08,0.043-0.164,0.041-0.246c-0.002-0.248-0.1-0.527-0.047-0.887c0.287-0.184,0.518-0.422,1.059-0.356
					c-0.01,0.055,0.002,0.088,0.018,0.117c0.025,0.047,0.066,0.08,0.07,0.15c-0.037,0.121-0.109,0.209-0.197,0.285
					c-0.137,0.111-0.314,0.188-0.51,0.242c0.047,0.074,0.076,0.125,0.096,0.17c0.051,0.121,0.031,0.201-0.008,0.447
					C256.032,27.429,255.981,27.584,255.72,27.525z M259.573,24.334c0.068,0.008,0.123,0,0.197,0.013
					c-0.031,0.184-0.008,0.363,0.014,0.526c0.021,0.154,0.037,0.289,0,0.385c-0.039,0.1-0.137,0.158-0.365,0.15
					c-0.012-0.08,0.006-0.129,0.031-0.168c0.068-0.104,0.215-0.125,0.232-0.275c-0.363-0.092-0.383,0.164-0.564,0.26
					c-0.043,0.02-0.092,0.033-0.158,0.033c-0.045-0.004-0.098-0.008-0.16-0.029c0.018,0.021,0.02,0.033,0.031,0.055
					c0.361,0.543-0.41,0.639-0.918,0.65c-0.062,0-0.119,0-0.17,0c-0.039-0.18,0.092-0.188,0.234-0.188
					c0.154,0.004,0.318,0.018,0.293-0.162c-0.018-0.014-0.029-0.033-0.043-0.047c-0.168-0.154-0.168-0.476-0.398-0.572
					C258.202,24.546,258.702,24.254,259.573,24.334z"/>
				<path fill="#FFFFFF" d="M239.88,46.216c0.043,0.01,0.088,0.01,0.127,0.014c-1.25-8.69-2.998-16.883-4.673-25.15
					c-0.059-0.293-0.119-0.585-0.178-0.877c1.488-0.397,3.458-0.309,4.937-0.711c0.041-1.398,0.035-2.783,0.02-4.148
					c-0.021-1.241-0.047-2.478-0.061-3.701c-0.047-2.799-0.037-5.553,0.236-8.307c0.025-0.258,0.041-0.521,0.072-0.781
					c-0.469-0.676-0.891-1.402-1.5-1.941c-7.197-0.335-15.424,0.287-22.942,0.088c-0.57,1.582-0.591,3.379-0.543,5.209
					c0.023,0.849,0.053,1.701,0.061,2.549c0.007,0.627,0,1.249-0.046,1.859c-0.04,0.543-0.224,1.064-0.263,1.587
					c-0.08,1.04-0.088,2.052-0.051,3.032c0.106,2.854,0.583,5.504,0.757,8.173c0.131,2.052,0.193,4.114,0.213,6.183
					c0.056,5.576-0.213,11.189-0.393,16.67c0.017,0,0.031,0,0.048,0c2.665-0.168,5.649,0.191,8.691-0.088
					c0.002-0.029-0.003-0.059,0-0.088c0.063-1.428-0.299-2.816-0.395-4.24c-0.033-0.521-0.033-1.045,0.04-1.582
					c0.146-1.037,0.787-1.914,0.875-2.85c0-0.018,0.006-0.037,0.009-0.059c0.09-1.305-0.435-2.617-0.528-3.975
					c-0.023-0.301-0.021-0.605-0.027-0.91c-0.027-1.273,0.039-2.578,0.056-3.898c0.007-0.572,0.003-1.145-0.028-1.721
					c-0.076-1.354-0.183-2.703-0.216-4.044c-0.021-0.773-0.021-1.542,0.038-2.306c0.541-0.193,1.433-0.038,2.117-0.088
					c0.529,2.059,0.662,4.516,1.766,5.994c0.756,6.172,2.266,11.623,3.705,17.121c0.266,1.02,0.174,2.193,0.794,3.088
					c0.646,0.045,0.758-0.557,1.322-0.531c0.449,0.018,0.353,0.348,0.883,0.443c0.322,0.029,0.08-0.506,0.529-0.355
					c0.133,0.275,0.315,0.293,0.618,0.355C236.985,46.447,238.704,46.091,239.88,46.216z M237.272,38.64
					c0.283-0.143,0.508-0.076,0.441,0.354C237.587,38.857,237.253,38.927,237.272,38.64z M235.684,8.994
					c0.22-0.072,0.475-0.113,0.794-0.088c0.185,0.268-0.361,0.418-0.354,0.793C235.528,9.732,235.651,9.482,235.684,8.994z
					 M228.01,6.435c-0.156-0.016-0.443,0.088-0.354-0.18c0.078-0.066,0.199-0.096,0.354-0.083V6.435z M217.861,27.525
					c0.686,0.26-0.47,1.24-0.441,0.352C217.961,27.957,217.74,27.781,217.861,27.525z M218.479,28.582
					c0.282,0.072,0.376,0.33,0.711,0.352c-0.247,0.44-0.447-0.121-0.798,0.088C218.317,28.775,218.517,28.794,218.479,28.582z
					 M219.981,18.699c-0.107-0.264-0.024-0.301,0.088-0.531h0.266C220.355,18.49,220.355,18.782,219.981,18.699z M220.422,25.845
					c0.233,0.029,0.298,0.231,0.353,0.443C220.524,26.273,220.401,26.134,220.422,25.845z M218.866,3.478
					c-0.277-0.576,0.336-1.162,1.285-1.463c0.072-0.145,0.019-0.263-0.076-0.371c-0.25-0.284-0.81-0.488-0.353-0.84h0.429
					c0.919,0.096,0.434,0.689,1.717,0.656c0.015,0.055,0.015,0.113,0.012,0.171c-0.012,0.229-0.104,0.493,0.132,0.636L218.866,3.478
					z M224.203,10.639c0.006-0.418-0.009-0.84-0.029-1.262c-0.017-0.301-0.033-0.606-0.046-0.911
					c2.665,0.033,4.73-0.054,7.235-0.088c-0.021,0.315-0.038,0.615-0.048,0.911c-0.02,0.464-0.023,0.928-0.003,1.425
					c0.013,0.238,0.025,0.484,0.051,0.752c-0.013,0-0.027,0-0.042,0c-2.386,0.2-4.754-0.08-7.105,0.167
					c-0.029,0.005-0.059,0.005-0.088,0.009C224.179,11.308,224.196,10.973,224.203,10.639z M236.04,30.169
					c-0.433-0.074-0.456,0.25-0.884,0.176C235.112,30.031,235.983,29.818,236.04,30.169z M235.711,31.123
					c0.039-0.074,0.079-0.15,0.129-0.213c0.009-0.008,0.011-0.021,0.02-0.035c0.16-0.012,0.189,0.111,0.355,0.09
					c0.088,0.59-0.417,0.584-0.794,0.711C235.528,31.5,235.613,31.302,235.711,31.123z M237.183,39.261
					c-0.279,0.135-0.389,0.029-0.352-0.355C237.106,38.865,237.226,38.982,237.183,39.261z"/>
				<path fill="#FFFFFF" d="M201.899,14.102c-0.136-1.437-0.211-3.584-0.273-5.247c-0.025-0.609,0.111-1.094,0-1.475
					c-0.236-0.781-1.347-1.567-1.842-2.391c-0.523-0.864-1.093-2.398-1.751-3.129c-0.15-0.166-0.303-0.308-0.461-0.371
					c-0.759-0.314-2.826-0.213-3.96-0.275c-3.76-0.218-7.382-0.326-11.052-0.46c-2.626-0.097-5.691-0.556-7.551-0.368
					c-0.173,0.74-0.04,1.596,0.367,2.023c-0.681,1.187-0.142,2.773-0.184,4.052c-0.033,1.004-0.307,1.932-0.459,2.762
					c0.18,0.164,0.4,0.264,0.639,0.34c1.053,0.334,2.571-0.021,3.78,0.217c0.009,0.112,0.013,0.23,0.02,0.346
					c0.315,5.143,0.402,10.545,0.167,15.951c-0.196,4.406,0.286,8.738-0.278,12.801c-1.188,0.051-2.445,0.076-3.776,0.186
					c-0.039,3.057,0.271,5.807,0.552,8.746c0.192-0.004,0.389-0.008,0.585-0.012c6.707-0.143,14.051-0.459,20.689-0.355
					c1.078-0.869,1.726-2.402,2.674-3.5c0.668-0.773,1.948-1.404,2.115-2.391c0.174-1.014-0.194-2.154-0.273-3.225
					c-0.146-1.971,0.15-4.031,0-6.078c-0.019-0.281-0.604,0.295-0.556-0.186c-0.202-0.584,0.493-1.064,0.645-1.475
					c0.191-0.51-0.006-0.906,0-1.654c0.021-2.564-0.048-6.584,0.184-10.406C201.987,17.076,202.031,15.447,201.899,14.102z
					 M187.719,39.525c-0.097-2.156,0.09-4.264,0.09-6.355c0-2.432-0.495-4.641-0.37-7.002c0.295-5.469-0.127-10.921-0.182-16.48
					c2.164-0.18,4.921-0.301,5.986,0.639c-0.009,0.025-0.02,0.033-0.033,0.051c-0.132,0.166-0.449-0.26-0.334,0.229
					c0.391,5.08-0.017,10.441,0,15.562c0.002,1.217-0.172,2.369-0.09,3.506c0.092,1.35,0.52,2.608,0.641,3.951
					c0.051,0.568-0.064,1.115,0,1.658c0.048,0.4,0.155,1.043,0.556,1.293c-0.559,0.646-0.359,1.875-0.464,2.762
					c-1.47,0.18-3.327,0.02-5.184,0.146C188.128,39.5,187.923,39.5,187.719,39.525z"/>
				<path fill="#FFFFFF" d="M169.98,26.211c-0.93-6.055-2.49-11.861-3.677-17.664c-0.808-0.715-0.781-1.918-0.987-3.143
					c-0.194-1.124-0.7-2.193-0.907-3.217c-0.024-0.125-0.062-0.246-0.079-0.371c-3.171-0.427-6.377,0.379-9.148,0.271
					c-0.647,1.695-0.305,3.571-0.806,5.293c-0.176,0.602-0.636,1.032-0.717,1.701c-0.069,0.529,0.094,1.14,0,1.703
					c-0.09,0.535-0.491,1.019-0.629,1.525c-0.447,1.629-0.842,3.684-1.165,5.56c-0.245,1.434-0.615,2.967-0.628,4.308
					c-0.042,3.601-0.796,6.78-1.17,10.312c-0.123,1.182-0.712,3.002-0.539,4.127c0.025,0.135,0.28,0.355,0.271,0.443
					c0,0.018-0.344,0.414-0.359,0.451c-0.079,0.217-0.156,0.584-0.179,0.719c-0.473,2.941-0.489,6.07-1.166,8.877
					c0.238-0.004,0.475,0,0.712-0.004c2.221-0.008,4.448,0.037,6.554-0.176c0.761-2.524,0.649-5.377,1.612-7.711
					c2.41-0.531,5.042-0.084,7.808-0.447c0.086,0.143,0.154,0.297,0.224,0.455c0.664,1.5,0.62,3.521,1.027,4.926
					c0.341,1.16,0.644,2.135,1.076,3.045c0.142-0.021,0.282-0.029,0.422-0.047c1.957-0.217,3.887,0.033,5.858-0.133
					c-0.699-6.016-1.913-11.812-2.692-17.664C170.554,28.277,170.143,27.267,169.98,26.211z M159.361,30.408
					c-0.224-0.021-0.447-0.041-0.679-0.07c0.386-2.721,1.119-5.578,1.345-8.164c0.673-0.743,0.484-1.883,0.805-3.049
					c0.143,0.535,0.279,1.082,0.413,1.633c0.783,3.238,1.399,6.676,2.187,9.668C161.963,30.554,160.707,30.55,159.361,30.408z"/>
				<path fill="#FFFFFF" d="M120.624,7.74c-0.035-0.627-0.387-1.272-0.182-1.889c-0.455-0.982-1.433-1.793-2.331-2.691
					c-0.572-0.573-1.136-1.271-1.765-1.776c-0.29-0.232-0.597-0.434-0.923-0.551c-1.812-0.664-4.576,0.359-6.819,0.359
					c-1.763,0-3.35-0.264-5.108-0.092c-0.328,0.088-0.04-0.44-0.449-0.268c-3.197,0.029-6.741-0.602-9.688-0.447
					c-0.165,0.715-0.036,1.555,0.359,1.968c-0.66,1.153-0.138,2.703-0.178,3.944c-0.029,0.983-0.301,1.881-0.449,2.695
					c0.18,0.162,0.401,0.258,0.642,0.334c1.025,0.312,2.491-0.025,3.663,0.2c0.009,0.117,0.019,0.233,0.027,0.347
					c0.292,3.914,0.717,7.674,0.332,11.857c-0.169,0.401,0.321,0.146,0.357,0.354c-0.775,2.406-0.29,5.172-0.178,7.713
					c0.119,2.758,0.099,5.738-0.09,8.611c-1.205,0.016-2.903-0.469-3.947,0.268c-0.124,2.848-0.471,6.555,0.806,8.609
					c0.145,0.004,0.286,0.004,0.431,0.012c3.63,0.164,7.151,0.08,10.603-0.283c2.189,0.301,5.19,0.074,7.621,0.18
					c0.545,0.025,1.109,0.191,1.615,0.092c0.741-0.143,1.747-1.027,2.604-1.525c1.154-0.672,2.405-1.607,2.957-2.418
					c0.814-1.207,0.05-2.57,0.09-4.127c0.019-0.766,0.337-1.555,0.359-2.332c0.055-1.734-0.071-3.572-0.184-5.381
					c-0.102-1.752,0.059-3.406,0.184-5.207c0.075-1.102-0.194-2.205-0.271-3.312c-0.115-1.65,0.28-2.811,0.359-4.219
					c0.103-1.785-0.211-3.682-0.359-5.474C120.547,11.298,120.712,9.416,120.624,7.74z M107.17,38.677
					c0.017-3.942-0.238-9.025-0.18-13.445c0-0.062,0-0.125,0-0.188c-0.057-0.034-0.143-0.072-0.238-0.105
					c-0.277-0.104-0.662-0.209-0.835-0.254c0.219-0.218,0.712-0.406,0.985-0.807c-0.064-4.838,0.512-9.07-0.092-13.453
					c0.952-0.488,2.841,0.093,4.039-0.087c0.005,0.146,0.005,0.296,0.009,0.446c0.101,5.214-0.006,10.805,0.438,15.871
					c0.061,0.711-0.094,1.459,0,2.156c0.094,0.705,0.564,1.434,0.627,2.152c0.037,0.443-0.104,0.885-0.09,1.346
					c0.064,2.084,0.52,4.273,0.268,6.188c-1.243,0.225-2.939,0-4.31,0.104C107.578,38.619,107.367,38.644,107.17,38.677z"/>
			</g>
			<g>
				<g>
					<g>
						<path fill="#FFFFFF" d="M472.21,3.04c1.039,0,1.56,0.436,1.56,1.309c0,0.726-0.402,1.141-1.204,1.246l1.309,2.02h-0.764
							l-1.246-1.968h-0.754v1.968h-0.712V3.04H472.21z M471.927,5.071c0.433,0,0.729-0.057,0.89-0.173
							c0.16-0.115,0.24-0.309,0.24-0.581c0-0.467-0.321-0.701-0.963-0.701h-0.984v1.455H471.927z"/>
					</g>
				</g>
				<path fill="#FFFFFF" d="M471.927,9.276c-2.179,0-3.952-1.773-3.952-3.952s1.773-3.952,3.952-3.952s3.952,1.773,3.952,3.952
					S474.106,9.276,471.927,9.276z M471.927,1.99c-1.838,0-3.334,1.495-3.334,3.334s1.496,3.334,3.334,3.334
					s3.334-1.495,3.334-3.334S473.765,1.99,471.927,1.99z"/>
			</g>
		</g>
	</g>
</g>
<g id="Layer_2">
</g>
</svg>
